<svg xmlns="http://www.w3.org/2000/svg" width="512" height="512" viewBox="0 0 512 512">
  <defs>
    <linearGradient id="binaryGradient" x1="0%" y1="0%" x2="100%" y2="100%">
      <stop offset="0%" style="stop-color:#050505;stop-opacity:1" />
      <stop offset="100%" style="stop-color:#0a0a1a;stop-opacity:1" />
    </linearGradient>
    <filter id="binaryGlow">
      <feGaussianBlur stdDeviation="1" result="coloredBlur"/>
      <feMerge>
        <feMergeNode in="coloredBlur"/>
        <feMergeNode in="SourceGraphic"/>
      </feMerge>
    </filter>
  </defs>
  
  <!-- Background -->
  <rect width="512" height="512" fill="url(#binaryGradient)"/>
  
  <!-- Binary code - Column 1 -->
  <g fill="#00FFCC" font-family="monospace" font-size="10" filter="url(#binaryGlow)">
    <text x="10" y="20">01001010</text>
    <text x="10" y="35">11010011</text>
    <text x="10" y="50">00101101</text>
    <text x="10" y="65">10110100</text>
    <text x="10" y="80">01101011</text>
    <text x="10" y="95">10010110</text>
    <text x="10" y="110">01011001</text>
    <text x="10" y="125">10100110</text>
    <text x="10" y="140">01101001</text>
    <text x="10" y="155">10010101</text>
    <text x="10" y="170">01010110</text>
    <text x="10" y="185">10101001</text>
    <text x="10" y="200">01100110</text>
    <text x="10" y="215">10011001</text>
    <text x="10" y="230">01001101</text>
    <text x="10" y="245">10110010</text>
    <text x="10" y="260">01100101</text>
    <text x="10" y="275">10011010</text>
    <text x="10" y="290">01010101</text>
    <text x="10" y="305">10101010</text>
    <text x="10" y="320">01101100</text>
    <text x="10" y="335">10011011</text>
    <text x="10" y="350">01001110</text>
    <text x="10" y="365">10110001</text>
    <text x="10" y="380">01101000</text>
    <text x="10" y="395">10010111</text>
    <text x="10" y="410">01011000</text>
    <text x="10" y="425">10100111</text>
    <text x="10" y="440">01101000</text>
    <text x="10" y="455">10010100</text>
    <text x="10" y="470">01011011</text>
    <text x="10" y="485">10100100</text>
    <text x="10" y="500">01101011</text>
  </g>
  
  <!-- Binary code - Column 2 -->
  <g fill="#7000FF" font-family="monospace" font-size="10" filter="url(#binaryGlow)">
    <text x="90" y="20">10110100</text>
    <text x="90" y="35">01001011</text>
    <text x="90" y="50">11010100</text>
    <text x="90" y="65">00101011</text>
    <text x="90" y="80">10010100</text>
    <text x="90" y="95">01101011</text>
    <text x="90" y="110">10100100</text>
    <text x="90" y="125">01011011</text>
    <text x="90" y="140">10010100</text>
    <text x="90" y="155">01101001</text>
    <text x="90" y="170">10100110</text>
    <text x="90" y="185">01011001</text>
    <text x="90" y="200">10010110</text>
    <text x="90" y="215">01101001</text>
    <text x="90" y="230">10100101</text>
    <text x="90" y="245">01010110</text>
    <text x="90" y="260">10101001</text>
    <text x="90" y="275">01010110</text>
    <text x="90" y="290">10101001</text>
    <text x="90" y="305">01010110</text>
    <text x="90" y="320">10101001</text>
    <text x="90" y="335">01010110</text>
    <text x="90" y="350">10101001</text>
    <text x="90" y="365">01010110</text>
    <text x="90" y="380">10101001</text>
    <text x="90" y="395">01010110</text>
    <text x="90" y="410">10101001</text>
    <text x="90" y="425">01010110</text>
    <text x="90" y="440">10101001</text>
    <text x="90" y="455">01010110</text>
    <text x="90" y="470">10101001</text>
    <text x="90" y="485">01010110</text>
    <text x="90" y="500">10101001</text>
  </g>
  
  <!-- Binary code - Column 3 -->
  <g fill="#32CD32" font-family="monospace" font-size="10" filter="url(#binaryGlow)">
    <text x="170" y="20">00101101</text>
    <text x="170" y="35">11010010</text>
    <text x="170" y="50">01100101</text>
    <text x="170" y="65">10011010</text>
    <text x="170" y="80">01100101</text>
    <text x="170" y="95">10011010</text>
    <text x="170" y="110">01100101</text>
    <text x="170" y="125">10011010</text>
    <text x="170" y="140">01100101</text>
    <text x="170" y="155">10011010</text>
    <text x="170" y="170">01100101</text>
    <text x="170" y="185">10011010</text>
    <text x="170" y="200">01100101</text>
    <text x="170" y="215">10011010</text>
    <text x="170" y="230">01100101</text>
    <text x="170" y="245">10011010</text>
    <text x="170" y="260">01100101</text>
    <text x="170" y="275">10011010</text>
    <text x="170" y="290">01100101</text>
    <text x="170" y="305">10011010</text>
    <text x="170" y="320">01100101</text>
    <text x="170" y="335">10011010</text>
    <text x="170" y="350">01100101</text>
    <text x="170" y="365">10011010</text>
    <text x="170" y="380">01100101</text>
    <text x="170" y="395">10011010</text>
    <text x="170" y="410">01100101</text>
    <text x="170" y="425">10011010</text>
    <text x="170" y="440">01100101</text>
    <text x="170" y="455">10011010</text>
    <text x="170" y="470">01100101</text>
    <text x="170" y="485">10011010</text>
    <text x="170" y="500">01100101</text>
  </g>
  
  <!-- Binary code - Column 4 -->
  <g fill="#00FFCC" font-family="monospace" font-size="10" filter="url(#binaryGlow)">
    <text x="250" y="20">11010011</text>
    <text x="250" y="35">00101100</text>
    <text x="250" y="50">10110011</text>
    <text x="250" y="65">01001100</text>
    <text x="250" y="80">10110011</text>
    <text x="250" y="95">01001100</text>
    <text x="250" y="110">10110011</text>
    <text x="250" y="125">01001100</text>
    <text x="250" y="140">10110011</text>
    <text x="250" y="155">01001100</text>
    <text x="250" y="170">10110011</text>
    <text x="250" y="185">01001100</text>
    <text x="250" y="200">10110011</text>
    <text x="250" y="215">01001100</text>
    <text x="250" y="230">10110011</text>
    <text x="250" y="245">01001100</text>
    <text x="250" y="260">10110011</text>
    <text x="250" y="275">01001100</text>
    <text x="250" y="290">10110011</text>
    <text x="250" y="305">01001100</text>
    <text x="250" y="320">10110011</text>
    <text x="250" y="335">01001100</text>
    <text x="250" y="350">10110011</text>
    <text x="250" y="365">01001100</text>
    <text x="250" y="380">10110011</text>
    <text x="250" y="395">01001100</text>
    <text x="250" y="410">10110011</text>
    <text x="250" y="425">01001100</text>
    <text x="250" y="440">10110011</text>
    <text x="250" y="455">01001100</text>
    <text x="250" y="470">10110011</text>
    <text x="250" y="485">01001100</text>
    <text x="250" y="500">10110011</text>
  </g>
  
  <!-- Binary code - Column 5 -->
  <g fill="#7000FF" font-family="monospace" font-size="10" filter="url(#binaryGlow)">
    <text x="330" y="20">01101011</text>
    <text x="330" y="35">10010100</text>
    <text x="330" y="50">01101011</text>
    <text x="330" y="65">10010100</text>
    <text x="330" y="80">01101011</text>
    <text x="330" y="95">10010100</text>
    <text x="330" y="110">01101011</text>
    <text x="330" y="125">10010100</text>
    <text x="330" y="140">01101011</text>
    <text x="330" y="155">10010100</text>
    <text x="330" y="170">01101011</text>
    <text x="330" y="185">10010100</text>
    <text x="330" y="200">01101011</text>
    <text x="330" y="215">10010100</text>
    <text x="330" y="230">01101011</text>
    <text x="330" y="245">10010100</text>
    <text x="330" y="260">01101011</text>
    <text x="330" y="275">10010100</text>
    <text x="330" y="290">01101011</text>
    <text x="330" y="305">10010100</text>
    <text x="330" y="320">01101011</text>
    <text x="330" y="335">10010100</text>
    <text x="330" y="350">01101011</text>
    <text x="330" y="365">10010100</text>
    <text x="330" y="380">01101011</text>
    <text x="330" y="395">10010100</text>
    <text x="330" y="410">01101011</text>
    <text x="330" y="425">10010100</text>
    <text x="330" y="440">01101011</text>
    <text x="330" y="455">10010100</text>
    <text x="330" y="470">01101011</text>
    <text x="330" y="485">10010100</text>
    <text x="330" y="500">01101011</text>
  </g>
  
  <!-- Binary code - Column 6 -->
  <g fill="#32CD32" font-family="monospace" font-size="10" filter="url(#binaryGlow)">
    <text x="410" y="20">10010110</text>
    <text x="410" y="35">01101001</text>
    <text x="410" y="50">10010110</text>
    <text x="410" y="65">01101001</text>
    <text x="410" y="80">10010110</text>
    <text x="410" y="95">01101001</text>
    <text x="410" y="110">10010110</text>
    <text x="410" y="125">01101001</text>
    <text x="410" y="140">10010110</text>
    <text x="410" y="155">01101001</text>
    <text x="410" y="170">10010110</text>
    <text x="410" y="185">01101001</text>
    <text x="410" y="200">10010110</text>
    <text x="410" y="215">01101001</text>
    <text x="410" y="230">10010110</text>
    <text x="410" y="245">01101001</text>
    <text x="410" y="260">10010110</text>
    <text x="410" y="275">01101001</text>
    <text x="410" y="290">10010110</text>
    <text x="410" y="305">01101001</text>
    <text x="410" y="320">10010110</text>
    <text x="410" y="335">01101001</text>
    <text x="410" y="350">10010110</text>
    <text x="410" y="365">01101001</text>
    <text x="410" y="380">10010110</text>
    <text x="410" y="395">01101001</text>
    <text x="410" y="410">10010110</text>
    <text x="410" y="425">01101001</text>
    <text x="410" y="440">10010110</text>
    <text x="410" y="455">01101001</text>
    <text x="410" y="470">10010110</text>
    <text x="410" y="485">01101001</text>
    <text x="410" y="500">10010110</text>
  </g>
  
  <!-- Highlighted bits -->
  <g fill="#00FFCC" filter="url(#binaryGlow)">
    <circle cx="14" cy="16" r="2"/>
    <circle cx="22" cy="31" r="2"/>
    <circle cx="18" cy="46" r="2"/>
    <circle cx="26" cy="61" r="2"/>
    <circle cx="20" cy="76" r="2"/>
    <circle cx="28" cy="91" r="2"/>
    <circle cx="16" cy="106" r="2"/>
    <circle cx="24" cy="121" r="2"/>
    <circle cx="18" cy="136" r="2"/>
    <circle cx="26" cy="151" r="2"/>
  </g>
  
  <g fill="#7000FF" filter="url(#binaryGlow)">
    <circle cx="94" cy="16" r="2"/>
    <circle cx="102" cy="31" r="2"/>
    <circle cx="98" cy="46" r="2"/>
    <circle cx="106" cy="61" r="2"/>
    <circle cx="100" cy="76" r="2"/>
    <circle cx="108" cy="91" r="2"/>
    <circle cx="96" cy="106" r="2"/>
    <circle cx="104" cy="121" r="2"/>
    <circle cx="98" cy="136" r="2"/>
    <circle cx="106" cy="151" r="2"/>
  </g>
  
  <g fill="#32CD32" filter="url(#binaryGlow)">
    <circle cx="174" cy="16" r="2"/>
    <circle cx="182" cy="31" r="2"/>
    <circle cx="178" cy="46" r="2"/>
    <circle cx="186" cy="61" r="2"/>
    <circle cx="180" cy="76" r="2"/>
    <circle cx="188" cy="91" r="2"/>
    <circle cx="176" cy="106" r="2"/>
    <circle cx="184" cy="121" r="2"/>
    <circle cx="178" cy="136" r="2"/>
    <circle cx="186" cy="151" r="2"/>
  </g>
</svg>