<svg xmlns="http://www.w3.org/2000/svg" width="512" height="512" viewBox="0 0 512 512">
  <defs>
    <linearGradient id="dataScienceGradient" x1="0%" y1="0%" x2="100%" y2="100%">
      <stop offset="0%" style="stop-color:#050505;stop-opacity:1" />
      <stop offset="100%" style="stop-color:#0a0a1a;stop-opacity:1" />
    </linearGradient>
    <linearGradient id="chartGradient" x1="0%" y1="0%" x2="100%" y2="100%">
      <stop offset="0%" style="stop-color:#00FFCC;stop-opacity:0.3" />
      <stop offset="100%" style="stop-color:#7000FF;stop-opacity:0.3" />
    </linearGradient>
    <filter id="dataScienceGlow">
      <feGaussianBlur stdDeviation="2" result="coloredBlur"/>
      <feMerge>
        <feMergeNode in="coloredBlur"/>
        <feMergeNode in="SourceGraphic"/>
      </feMerge>
    </filter>
  </defs>
  
  <!-- Background -->
  <rect width="512" height="512" fill="url(#dataScienceGradient)"/>
  
  <!-- Bar chart -->
  <g fill="url(#chartGradient)" stroke="#00FFCC" stroke-width="1" filter="url(#dataScienceGlow)">
    <rect x="64" y="256" width="48" height="128" rx="2"/>
    <rect x="128" y="192" width="48" height="192" rx="2"/>
    <rect x="192" y="224" width="48" height="160" rx="2"/>
    <rect x="256" y="160" width="48" height="224" rx="2"/>
    <rect x="320" y="288" width="48" height="96" rx="2"/>
    <rect x="384" y="208" width="48" height="176" rx="2"/>
  </g>
  
  <!-- Bar chart values -->
  <g fill="#32CD32" font-family="monospace" font-size="10" text-anchor="middle" filter="url(#dataScienceGlow)">
    <text x="88" y="248">40</text>
    <text x="152" y="184">60</text>
    <text x="216" y="216">50</text>
    <text x="280" y="152">70</text>
    <text x="344" y="280">30</text>
    <text x="408" y="200">55</text>
  </g>
  
  <!-- Bar chart labels -->
  <g fill="#00FFCC" font-family="monospace" font-size="8" text-anchor="middle" filter="url(#dataScienceGlow)">
    <text x="88" y="400">Jan</text>
    <text x="152" y="400">Feb</text>
    <text x="216" y="400">Mar</text>
    <text x="280" y="400">Apr</text>
    <text x="344" y="400">May</text>
    <text x="408" y="400">Jun</text>
  </g>
  
  <!-- Line chart -->
  <g fill="none" stroke="#7000FF" stroke-width="2" filter="url(#dataScienceGlow)">
    <polyline points="88,320 152,256 216,288 280,224 344,352 408,272"/>
  </g>
  
  <!-- Line chart points -->
  <g fill="#00FFCC" filter="url(#dataScienceGlow)">
    <circle cx="88" cy="320" r="6"/>
    <circle cx="152" cy="256" r="6"/>
    <circle cx="216" cy="288" r="6"/>
    <circle cx="280" cy="224" r="6"/>
    <circle cx="344" cy="352" r="6"/>
    <circle cx="408" cy="272" r="6"/>
  </g>
  
  <!-- Pie chart -->
  <g fill="url(#chartGradient)" stroke="#00FFCC" stroke-width="1" filter="url(#dataScienceGlow)">
    <path d="M256 64 L256 128 A64 64 0 0 1 320 192 L256 192 Z"/>
    <path d="M256 64 L256 128 A64 64 0 0 0 192 192 L256 192 Z"/>
    <path d="M256 64 L256 128 A64 64 0 0 0 256 64 Z"/>
  </g>
  
  <!-- Pie chart labels -->
  <g fill="#32CD32" font-family="monospace" font-size="8" text-anchor="middle" filter="url(#dataScienceGlow)">
    <text x="288" y="128">33%</text>
    <text x="224" y="128">33%</text>
    <text x="256" y="96">34%</text>
  </g>
  
  <!-- Scatter plot -->
  <g fill="#7000FF" filter="url(#dataScienceGlow)">
    <circle cx="80" cy="80" r="4"/>
    <circle cx="112" cy="96" r="4"/>
    <circle cx="144" cy="64" r="4"/>
    <circle cx="176" cy="112" r="4"/>
    <circle cx="208" cy="80" r="4"/>
    <circle cx="240" cy="128" r="4"/>
    <circle cx="272" cy="96" r="4"/>
    <circle cx="304" cy="144" r="4"/>
    <circle cx="336" cy="112" r="4"/>
    <circle cx="368" cy="160" r="4"/>
    <circle cx="400" cy="128" r="4"/>
    <circle cx="432" cy="176" r="4"/>
  </g>
  
  <!-- Scatter plot trend line -->
  <g fill="none" stroke="#00FFCC" stroke-width="1" filter="url(#dataScienceGlow)">
    <line x1="80" y1="80" x2="432" y2="176"/>
  </g>
  
  <!-- Histogram -->
  <g fill="url(#chartGradient)" stroke="#00FFCC" stroke-width="1" filter="url(#dataScienceGlow)">
    <rect x="64" y="416" width="32" height="32" rx="2"/>
    <rect x="96" y="384" width="32" height="64" rx="2"/>
    <rect x="128" y="352" width="32" height="96" rx="2"/>
    <rect x="160" y="320" width="32" height="128" rx="2"/>
    <rect x="192" y="288" width="32" height="160" rx="2"/>
    <rect x="224" y="320" width="32" height="128" rx="2"/>
    <rect x="256" y="352" width="32" height="96" rx="2"/>
    <rect x="288" y="384" width="32" height="64" rx="2"/>
    <rect x="320" y="416" width="32" height="32" rx="2"/>
  </g>
  
  <!-- Histogram labels -->
  <g fill="#32CD32" font-family="monospace" font-size="8" text-anchor="middle" filter="url(#dataScienceGlow)">
    <text x="80" y="460">10</text>
    <text x="112" y="460">20</text>
    <text x="144" y="460">30</text>
    <text x="176" y="460">40</text>
    <text x="208" y="460">50</text>
    <text x="240" y="460">40</text>
    <text x="272" y="460">30</text>
    <text x="304" y="460">20</text>
    <text x="336" y="460">10</text>
  </g>
  
  <!-- Box plot -->
  <g fill="none" stroke="#7000FF" stroke-width="2" filter="url(#dataScienceGlow)">
    <line x1="80" y1="64" x2="80" y2="144"/>
    <line x1="64" y1="64" x2="96" y2="64"/>
    <line x1="64" y1="144" x2="96" y2="144"/>
    <rect x="64" y="80" width="32" height="48" fill="url(#chartGradient)"/>
    <line x1="80" y1="104" x2="80" y2="104" stroke="#00FFCC" stroke-width="3"/>
    
    <line x1="144" y1="48" x2="144" y2="160"/>
    <line x1="128" y1="48" x2="160" y2="48"/>
    <line x1="128" y1="160" x2="160" y2="160"/>
    <rect x="128" y="64" width="32" height="64" fill="url(#chartGradient)"/>
    <line x1="144" y1="96" x2="144" y2="96" stroke="#00FFCC" stroke-width="3"/>
    
    <line x1="208" y1="80" x2="208" y2="128"/>
    <line x1="192" y1="80" x2="224" y2="80"/>
    <line x1="192" y1="128" x2="224" y2="128"/>
    <rect x="192" y="88" width="32" height="32" fill="url(#chartGradient)"/>
    <line x1="208" y1="104" x2="208" y2="104" stroke="#00FFCC" stroke-width="3"/>
  </g>
  
  <!-- Box plot labels -->
  <g fill="#32CD32" font-family="monospace" font-size="8" text-anchor="middle" filter="url(#dataScienceGlow)">
    <text x="80" y="168">A</text>
    <text x="144" y="184">B</text>
    <text x="208" y="152">C</text>
  </g>
  
  <!-- Heatmap -->
  <g fill="url(#chartGradient)" stroke="#00FFCC" stroke-width="1" filter="url(#dataScienceGlow)">
    <rect x="368" y="64" width="32" height="32" rx="2" fill="#00FFCC" fill-opacity="0.2"/>
    <rect x="400" y="64" width="32" height="32" rx="2" fill="#00FFCC" fill-opacity="0.4"/>
    <rect x="432" y="64" width="32" height="32" rx="2" fill="#00FFCC" fill-opacity="0.6"/>
    <rect x="464" y="64" width="32" height="32" rx="2" fill="#00FFCC" fill-opacity="0.8"/>
    
    <rect x="368" y="96" width="32" height="32" rx="2" fill="#00FFCC" fill-opacity="0.4"/>
    <rect x="400" y="96" width="32" height="32" rx="2" fill="#00FFCC" fill-opacity="0.6"/>
    <rect x="432" y="96" width="32" height="32" rx="2" fill="#00FFCC" fill-opacity="0.8"/>
    <rect x="464" y="96" width="32" height="32" rx="2" fill="#00FFCC" fill-opacity="1.0"/>
    
    <rect x="368" y="128" width="32" height="32" rx="2" fill="#00FFCC" fill-opacity="0.6"/>
    <rect x="400" y="128" width="32" height="32" rx="2" fill="#00FFCC" fill-opacity="0.8"/>
    <rect x="432" y="128" width="32" height="32" rx="2" fill="#00FFCC" fill-opacity="1.0"/>
    <rect x="464" y="128" width="32" height="32" rx="2" fill="#00FFCC" fill-opacity="0.8"/>
    
    <rect x="368" y="160" width="32" height="32" rx="2" fill="#00FFCC" fill-opacity="0.8"/>
    <rect x="400" y="160" width="32" height="32" rx="2" fill="#00FFCC" fill-opacity="1.0"/>
    <rect x="432" y="160" width="32" height="32" rx="2" fill="#00FFCC" fill-opacity="0.8"/>
    <rect x="464" y="160" width="32" height="32" rx="2" fill="#00FFCC" fill-opacity="0.6"/>
  </g>
  
  <!-- Heatmap labels -->
  <g fill="#32CD32" font-family="monospace" font-size="6" text-anchor="middle" filter="url(#dataScienceGlow)">
    <text x="384" y="84">0.2</text>
    <text x="416" y="84">0.4</text>
    <text x="448" y="84">0.6</text>
    <text x="480" y="84">0.8</text>
    
    <text x="384" y="116">0.4</text>
    <text x="416" y="116">0.6</text>
    <text x="448" y="116">0.8</text>
    <text x="480" y="116">1.0</text>
    
    <text x="384" y="148">0.6</text>
    <text x="416" y="148">0.8</text>
    <text x="448" y="148">1.0</text>
    <text x="480" y="148">0.8</text>
    
    <text x="384" y="180">0.8</text>
    <text x="416" y="180">1.0</text>
    <text x="448" y="180">0.8</text>
    <text x="480" y="180">0.6</text>
  </g>
  
  <!-- Data flow indicators -->
  <g fill="#7000FF" filter="url(#dataScienceGlow)">
    <circle cx="64" cy="256" r="3"/>
    <circle cx="128" cy="192" r="3"/>
    <circle cx="192" cy="224" r="3"/>
    <circle cx="256" cy="160" r="3"/>
    <circle cx="320" cy="288" r="3"/>
    <circle cx="384" cy="208" r="3"/>
  </g>
  
  <!-- Data connection lines -->
  <g stroke="#32CD32" stroke-width="1" fill="none" filter="url(#dataScienceGlow)">
    <line x1="64" y1="256" x2="128" y2="192"/>
    <line x1="128" y1="192" x2="192" y2="224"/>
    <line x1="192" y1="224" x2="256" y2="160"/>
    <line x1="256" y1="160" x2="320" y2="288"/>
    <line x1="320" y1="288" x2="384" y2="208"/>
  </g>
  
  <!-- Data analysis indicators -->
  <g fill="#00FFCC" filter="url(#dataScienceGlow)">
    <rect x="240" y="240" width="32" height="32" rx="4"/>
    <text x="256" y="260" font-family="monospace" font-size="12" text-anchor="middle" fill="#050505">AI</text>
  </g>
</svg>