<svg xmlns="http://www.w3.org/2000/svg" width="512" height="512" viewBox="0 0 512 512">
  <defs>
    <linearGradient id="fractalGradient" x1="0%" y1="0%" x2="100%" y2="100%">
      <stop offset="0%" style="stop-color:#050505;stop-opacity:1" />
      <stop offset="100%" style="stop-color:#0a0a1a;stop-opacity:1" />
    </linearGradient>
    <linearGradient id="fractalLineGradient" x1="0%" y1="0%" x2="100%" y2="100%">
      <stop offset="0%" style="stop-color:#00FFCC;stop-opacity:1" />
      <stop offset="50%" style="stop-color:#7000FF;stop-opacity:1" />
      <stop offset="100%" style="stop-color:#32CD32;stop-opacity:1" />
    </linearGradient>
    <filter id="fractalGlow">
      <feGaussianBlur stdDeviation="1.5" result="coloredBlur"/>
      <feMerge>
        <feMergeNode in="coloredBlur"/>
        <feMergeNode in="SourceGraphic"/>
      </feMerge>
    </filter>
  </defs>
  
  <!-- Background -->
  <rect width="512" height="512" fill="url(#fractalGradient)"/>
  
  <!-- Main fractal tree (center) -->
  <g stroke="url(#fractalLineGradient)" stroke-width="2" fill="none" filter="url(#fractalGlow)">
    <!-- Trunk -->
    <line x1="256" y1="450" x2="256" y2="350"/>
    
    <!-- Level 1 branches -->
    <line x1="256" y1="350" x2="206" y2="300"/>
    <line x1="256" y1="350" x2="306" y2="300"/>
    
    <!-- Level 2 branches (left) -->
    <line x1="206" y1="300" x2="181" y2="250"/>
    <line x1="206" y1="300" x2="231" y2="250"/>
    
    <!-- Level 2 branches (right) -->
    <line x1="306" y1="300" x2="281" y2="250"/>
    <line x1="306" y1="300" x2="331" y2="250"/>
    
    <!-- Level 3 branches (left-left) -->
    <line x1="181" y1="250" x2="168" y2="200"/>
    <line x1="181" y1="250" x2="194" y2="200"/>
    
    <!-- Level 3 branches (left-right) -->
    <line x1="231" y1="250" x2="218" y2="200"/>
    <line x1="231" y1="250" x2="244" y2="200"/>
    
    <!-- Level 3 branches (right-left) -->
    <line x1="281" y1="250" x2="268" y2="200"/>
    <line x1="281" y1="250" x2="294" y2="200"/>
    
    <!-- Level 3 branches (right-right) -->
    <line x1="331" y1="250" x2="318" y2="200"/>
    <line x1="331" y1="250" x2="344" y2="200"/>
    
    <!-- Level 4 branches -->
    <line x1="168" y1="200" x2="161" y2="150"/>
    <line x1="168" y1="200" x2="175" y2="150"/>
    <line x1="194" y1="200" x2="187" y2="150"/>
    <line x1="194" y1="200" x2="201" y2="150"/>
    <line x1="218" y1="200" x2="211" y2="150"/>
    <line x1="218" y1="200" x2="225" y2="150"/>
    <line x1="244" y1="200" x2="237" y2="150"/>
    <line x1="244" y1="200" x2="251" y2="150"/>
    <line x1="268" y1="200" x2="261" y2="150"/>
    <line x1="268" y1="200" x2="275" y2="150"/>
    <line x1="294" y1="200" x2="287" y2="150"/>
    <line x1="294" y1="200" x2="301" y2="150"/>
    <line x1="318" y1="200" x2="311" y2="150"/>
    <line x1="318" y1="200" x2="325" y2="150"/>
    <line x1="344" y1="200" x2="337" y2="150"/>
    <line x1="344" y1="200" x2="351" y2="150"/>
  </g>
  
  <!-- Secondary fractal (top-left) -->
  <g stroke="#00FFCC" stroke-width="1.5" fill="none" opacity="0.6" filter="url(#fractalGlow)">
    <line x1="100" y1="200" x2="100" y2="150"/>
    <line x1="100" y1="150" x2="75" y2="125"/>
    <line x1="100" y1="150" x2="125" y2="125"/>
    <line x1="75" y1="125" x2="62" y2="100"/>
    <line x1="75" y1="125" x2="88" y2="100"/>
    <line x1="125" y1="125" x2="112" y2="100"/>
    <line x1="125" y1="125" x2="138" y2="100"/>
  </g>
  
  <!-- Secondary fractal (top-right) -->
  <g stroke="#7000FF" stroke-width="1.5" fill="none" opacity="0.6" filter="url(#fractalGlow)">
    <line x1="412" y1="200" x2="412" y2="150"/>
    <line x1="412" y1="150" x2="387" y2="125"/>
    <line x1="412" y1="150" x2="437" y2="125"/>
    <line x1="387" y1="125" x2="374" y2="100"/>
    <line x1="387" y1="125" x2="400" y2="100"/>
    <line x1="437" y1="125" x2="424" y2="100"/>
    <line x1="437" y1="125" x2="450" y2="100"/>
  </g>
  
  <!-- Fractal nodes -->
  <g fill="#00FFCC" filter="url(#fractalGlow)">
    <!-- Main tree nodes -->
    <circle cx="256" cy="450" r="4"/>
    <circle cx="256" cy="350" r="3"/>
    <circle cx="206" cy="300" r="2.5"/>
    <circle cx="306" cy="300" r="2.5"/>
    <circle cx="181" cy="250" r="2"/>
    <circle cx="231" cy="250" r="2"/>
    <circle cx="281" cy="250" r="2"/>
    <circle cx="331" cy="250" r="2"/>
  </g>
  
  <g fill="#7000FF" filter="url(#fractalGlow)">
    <!-- Secondary tree nodes -->
    <circle cx="100" cy="200" r="3"/>
    <circle cx="100" cy="150" r="2.5"/>
    <circle cx="75" cy="125" r="2"/>
    <circle cx="125" cy="125" r="2"/>
    
    <circle cx="412" cy="200" r="3"/>
    <circle cx="412" cy="150" r="2.5"/>
    <circle cx="387" cy="125" r="2"/>
    <circle cx="437" cy="125" r="2"/>
  </g>
  
  <!-- Floating particles -->
  <g fill="#32CD32" filter="url(#fractalGlow)" opacity="0.5">
    <circle cx="161" cy="150" r="1.5"/>
    <circle cx="175" cy="150" r="1.5"/>
    <circle cx="187" cy="150" r="1.5"/>
    <circle cx="201" cy="150" r="1.5"/>
    <circle cx="211" cy="150" r="1.5"/>
    <circle cx="225" cy="150" r="1.5"/>
    <circle cx="237" cy="150" r="1.5"/>
    <circle cx="251" cy="150" r="1.5"/>
    <circle cx="261" cy="150" r="1.5"/>
    <circle cx="275" cy="150" r="1.5"/>
    <circle cx="287" cy="150" r="1.5"/>
    <circle cx="301" cy="150" r="1.5"/>
    <circle cx="311" cy="150" r="1.5"/>
    <circle cx="325" cy="150" r="1.5"/>
    <circle cx="337" cy="150" r="1.5"/>
    <circle cx="351" cy="150" r="1.5"/>
  </g>
  
  <!-- Recursive pattern (smaller fractals) -->
  <g stroke="#32CD32" stroke-width="1" fill="none" opacity="0.4" filter="url(#fractalGlow)">
    <!-- Bottom-left -->
    <line x1="50" y1="400" x2="50" y2="370"/>
    <line x1="50" y1="370" x2="35" y2="355"/>
    <line x1="50" y1="370" x2="65" y2="355"/>
    
    <!-- Bottom-right -->
    <line x1="462" y1="400" x2="462" y2="370"/>
    <line x1="462" y1="370" x2="447" y2="355"/>
    <line x1="462" y1="370" x2="477" y2="355"/>
  </g>
</svg>