<svg xmlns="http://www.w3.org/2000/svg" width="512" height="512" viewBox="0 0 512 512">
  <defs>
    <linearGradient id="mlGradient" x1="0%" y1="0%" x2="100%" y2="100%">
      <stop offset="0%" style="stop-color:#050505;stop-opacity:1" />
      <stop offset="100%" style="stop-color:#0a0a1a;stop-opacity:1" />
    </linearGradient>
    <linearGradient id="nodeGradient" x1="0%" y1="0%" x2="100%" y2="100%">
      <stop offset="0%" style="stop-color:#00FFCC;stop-opacity:0.3" />
      <stop offset="100%" style="stop-color:#7000FF;stop-opacity:0.3" />
    </linearGradient>
    <filter id="mlGlow">
      <feGaussianBlur stdDeviation="2" result="coloredBlur"/>
      <feMerge>
        <feMergeNode in="coloredBlur"/>
        <feMergeNode in="SourceGraphic"/>
      </feMerge>
    </filter>
  </defs>
  
  <!-- Background -->
  <rect width="512" height="512" fill="url(#mlGradient)"/>
  
  <!-- Neural network layers -->
  <g fill="url(#nodeGradient)" stroke="#00FFCC" stroke-width="1" filter="url(#mlGlow)">
    <!-- Input layer -->
    <circle cx="80" cy="128" r="20"/>
    <circle cx="80" cy="192" r="20"/>
    <circle cx="80" cy="256" r="20"/>
    <circle cx="80" cy="320" r="20"/>
    <circle cx="80" cy="384" r="20"/>
    
    <!-- Hidden layer 1 -->
    <circle cx="192" cy="96" r="20"/>
    <circle cx="192" cy="160" r="20"/>
    <circle cx="192" cy="224" r="20"/>
    <circle cx="192" cy="288" r="20"/>
    <circle cx="192" cy="352" r="20"/>
    <circle cx="192" cy="416" r="20"/>
    
    <!-- Hidden layer 2 -->
    <circle cx="304" cy="128" r="20"/>
    <circle cx="304" cy="192" r="20"/>
    <circle cx="304" cy="256" r="20"/>
    <circle cx="304" cy="320" r="20"/>
    <circle cx="304" cy="384" r="20"/>
    
    <!-- Output layer -->
    <circle cx="416" cy="192" r="20"/>
    <circle cx="416" cy="256" r="20"/>
    <circle cx="416" cy="320" r="20"/>
  </g>
  
  <!-- Neural network connections -->
  <g stroke="#7000FF" stroke-width="1" fill="none" filter="url(#mlGlow)">
    <!-- Input to Hidden 1 -->
    <line x1="100" y1="128" x2="172" y2="96"/>
    <line x1="100" y1="128" x2="172" y2="160"/>
    <line x1="100" y1="128" x2="172" y2="224"/>
    <line x1="100" y1="128" x2="172" y2="288"/>
    <line x1="100" y1="128" x2="172" y2="352"/>
    <line x1="100" y1="128" x2="172" y2="416"/>
    
    <line x1="100" y1="192" x2="172" y2="96"/>
    <line x1="100" y1="192" x2="172" y2="160"/>
    <line x1="100" y1="192" x2="172" y2="224"/>
    <line x1="100" y1="192" x2="172" y2="288"/>
    <line x1="100" y1="192" x2="172" y2="352"/>
    <line x1="100" y1="192" x2="172" y2="416"/>
    
    <line x1="100" y1="256" x2="172" y2="96"/>
    <line x1="100" y1="256" x2="172" y2="160"/>
    <line x1="100" y1="256" x2="172" y2="224"/>
    <line x1="100" y1="256" x2="172" y2="288"/>
    <line x1="100" y1="256" x2="172" y2="352"/>
    <line x1="100" y1="256" x2="172" y2="416"/>
    
    <line x1="100" y1="320" x2="172" y2="96"/>
    <line x1="100" y1="320" x2="172" y2="160"/>
    <line x1="100" y1="320" x2="172" y2="224"/>
    <line x1="100" y1="320" x2="172" y2="288"/>
    <line x1="100" y1="320" x2="172" y2="352"/>
    <line x1="100" y1="320" x2="172" y2="416"/>
    
    <line x1="100" y1="384" x2="172" y2="96"/>
    <line x1="100" y1="384" x2="172" y2="160"/>
    <line x1="100" y1="384" x2="172" y2="224"/>
    <line x1="100" y1="384" x2="172" y2="288"/>
    <line x1="100" y1="384" x2="172" y2="352"/>
    <line x1="100" y1="384" x2="172" y2="416"/>
    
    <!-- Hidden 1 to Hidden 2 -->
    <line x1="212" y1="96" x2="284" y2="128"/>
    <line x1="212" y1="96" x2="284" y2="192"/>
    <line x1="212" y1="96" x2="284" y2="256"/>
    <line x1="212" y1="96" x2="284" y2="320"/>
    <line x1="212" y1="96" x2="284" y2="384"/>
    
    <line x1="212" y1="160" x2="284" y2="128"/>
    <line x1="212" y1="160" x2="284" y2="192"/>
    <line x1="212" y1="160" x2="284" y2="256"/>
    <line x1="212" y1="160" x2="284" y2="320"/>
    <line x1="212" y1="160" x2="284" y2="384"/>
    
    <line x1="212" y1="224" x2="284" y2="128"/>
    <line x1="212" y1="224" x2="284" y2="192"/>
    <line x1="212" y1="224" x2="284" y2="256"/>
    <line x1="212" y1="224" x2="284" y2="320"/>
    <line x1="212" y1="224" x2="284" y2="384"/>
    
    <line x1="212" y1="288" x2="284" y2="128"/>
    <line x1="212" y1="288" x2="284" y2="192"/>
    <line x1="212" y1="288" x2="284" y2="256"/>
    <line x1="212" y1="288" x2="284" y2="320"/>
    <line x1="212" y1="288" x2="284" y2="384"/>
    
    <line x1="212" y1="352" x2="284" y2="128"/>
    <line x1="212" y1="352" x2="284" y2="192"/>
    <line x1="212" y1="352" x2="284" y2="256"/>
    <line x1="212" y1="352" x2="284" y2="320"/>
    <line x1="212" y1="352" x2="284" y2="384"/>
    
    <line x1="212" y1="416" x2="284" y2="128"/>
    <line x1="212" y1="416" x2="284" y2="192"/>
    <line x1="212" y1="416" x2="284" y2="256"/>
    <line x1="212" y1="416" x2="284" y2="320"/>
    <line x1="212" y1="416" x2="284" y2="384"/>
    
    <!-- Hidden 2 to Output -->
    <line x1="324" y1="128" x2="396" y2="192"/>
    <line x1="324" y1="128" x2="396" y2="256"/>
    <line x1="324" y1="128" x2="396" y2="320"/>
    
    <line x1="324" y1="192" x2="396" y2="192"/>
    <line x1="324" y1="192" x2="396" y2="256"/>
    <line x1="324" y1="192" x2="396" y2="320"/>
    
    <line x1="324" y1="256" x2="396" y2="192"/>
    <line x1="324" y1="256" x2="396" y2="256"/>
    <line x1="324" y1="256" x2="396" y2="320"/>
    
    <line x1="324" y1="320" x2="396" y2="192"/>
    <line x1="324" y1="320" x2="396" y2="256"/>
    <line x1="324" y1="320" x2="396" y2="320"/>
    
    <line x1="324" y1="384" x2="396" y2="192"/>
    <line x1="324" y1="384" x2="396" y2="256"/>
    <line x1="324" y1="384" x2="396" y2="320"/>
  </g>
  
  <!-- Node activation indicators -->
  <g fill="#32CD32" filter="url(#mlGlow)">
    <!-- Input layer -->
    <circle cx="80" cy="128" r="8"/>
    <circle cx="80" cy="192" r="8"/>
    <circle cx="80" cy="256" r="8"/>
    <circle cx="80" cy="320" r="8"/>
    <circle cx="80" cy="384" r="8"/>
    
    <!-- Hidden layer 1 -->
    <circle cx="192" cy="96" r="8"/>
    <circle cx="192" cy="160" r="8"/>
    <circle cx="192" cy="224" r="8"/>
    <circle cx="192" cy="288" r="8"/>
    <circle cx="192" cy="352" r="8"/>
    <circle cx="192" cy="416" r="8"/>
    
    <!-- Hidden layer 2 -->
    <circle cx="304" cy="128" r="8"/>
    <circle cx="304" cy="192" r="8"/>
    <circle cx="304" cy="256" r="8"/>
    <circle cx="304" cy="320" r="8"/>
    <circle cx="304" cy="384" r="8"/>
    
    <!-- Output layer -->
    <circle cx="416" cy="192" r="8"/>
    <circle cx="416" cy="256" r="8"/>
    <circle cx="416" cy="320" r="8"/>
  </g>
  
  <!-- Weight indicators -->
  <g fill="#00FFCC" filter="url(#mlGlow)">
    <!-- Input to Hidden 1 weights -->
    <circle cx="136" cy="112" r="3"/>
    <circle cx="136" cy="144" r="3"/>
    <circle cx="136" cy="176" r="3"/>
    <circle cx="136" cy="208" r="3"/>
    <circle cx="136" cy="240" r="3"/>
    <circle cx="136" cy="272" r="3"/>
    
    <circle cx="136" cy="176" r="3"/>
    <circle cx="136" cy="208" r="3"/>
    <circle cx="136" cy="240" r="3"/>
    <circle cx="136" cy="272" r="3"/>
    <circle cx="136" cy="304" r="3"/>
    <circle cx="136" cy="336" r="3"/>
    
    <circle cx="136" cy="240" r="3"/>
    <circle cx="136" cy="272" r="3"/>
    <circle cx="136" cy="304" r="3"/>
    <circle cx="136" cy="336" r="3"/>
    <circle cx="136" cy="368" r="3"/>
    <circle cx="136" cy="400" r="3"/>
    
    <circle cx="136" cy="304" r="3"/>
    <circle cx="136" cy="336" r="3"/>
    <circle cx="136" cy="368" r="3"/>
    <circle cx="136" cy="400" r="3"/>
    <circle cx="136" cy="432" r="3"/>
    <circle cx="136" cy="464" r="3"/>
    
    <circle cx="136" cy="368" r="3"/>
    <circle cx="136" cy="400" r="3"/>
    <circle cx="136" cy="432" r="3"/>
    <circle cx="136" cy="464" r="3"/>
    <circle cx="136" cy="496" r="3"/>
    <circle cx="136" cy="528" r="3"/>
    
    <!-- Hidden 1 to Hidden 2 weights -->
    <circle cx="248" cy="112" r="3"/>
    <circle cx="248" cy="144" r="3"/>
    <circle cx="248" cy="176" r="3"/>
    <circle cx="248" cy="208" r="3"/>
    <circle cx="248" cy="240" r="3"/>
    
    <circle cx="248" cy="144" r="3"/>
    <circle cx="248" cy="176" r="3"/>
    <circle cx="248" cy="208" r="3"/>
    <circle cx="248" cy="240" r="3"/>
    <circle cx="248" cy="272" r="3"/>
    
    <circle cx="248" cy="176" r="3"/>
    <circle cx="248" cy="208" r="3"/>
    <circle cx="248" cy="240" r="3"/>
    <circle cx="248" cy="272" r="3"/>
    <circle cx="248" cy="304" r="3"/>
    
    <circle cx="248" cy="208" r="3"/>
    <circle cx="248" cy="240" r="3"/>
    <circle cx="248" cy="272" r="3"/>
    <circle cx="248" cy="304" r="3"/>
    <circle cx="248" cy="336" r="3"/>
    
    <circle cx="248" cy="240" r="3"/>
    <circle cx="248" cy="272" r="3"/>
    <circle cx="248" cy="304" r="3"/>
    <circle cx="248" cy="336" r="3"/>
    <circle cx="248" cy="368" r="3"/>
    
    <circle cx="248" cy="272" r="3"/>
    <circle cx="248" cy="304" r="3"/>
    <circle cx="248" cy="336" r="3"/>
    <circle cx="248" cy="368" r="3"/>
    <circle cx="248" cy="400" r="3"/>
    
    <!-- Hidden 2 to Output weights -->
    <circle cx="360" cy="160" r="3"/>
    <circle cx="360" cy="192" r="3"/>
    <circle cx="360" cy="224" r="3"/>
    
    <circle cx="360" cy="192" r="3"/>
    <circle cx="360" cy="224" r="3"/>
    <circle cx="360" cy="256" r="3"/>
    
    <circle cx="360" cy="224" r="3"/>
    <circle cx="360" cy="256" r="3"/>
    <circle cx="360" cy="288" r="3"/>
    
    <circle cx="360" cy="256" r="3"/>
    <circle cx="360" cy="288" r="3"/>
    <circle cx="360" cy="320" r="3"/>
    
    <circle cx="360" cy="288" r="3"/>
    <circle cx="360" cy="320" r="3"/>
    <circle cx="360" cy="352" r="3"/>
  </g>
  
  <!-- Layer labels -->
  <g fill="#00FFCC" font-family="monospace" font-size="10" text-anchor="middle" filter="url(#mlGlow)">
    <text x="80" y="64">Input</text>
    <text x="192" y="64">Hidden 1</text>
    <text x="304" y="64">Hidden 2</text>
    <text x="416" y="64">Output</text>
  </g>
  
  <!-- Bias indicators -->
  <g fill="#7000FF" filter="url(#mlGlow)">
    <circle cx="80" cy="128" r="4"/>
    <circle cx="80" cy="192" r="4"/>
    <circle cx="80" cy="256" r="4"/>
    <circle cx="80" cy="320" r="4"/>
    <circle cx="80" cy="384" r="4"/>
    
    <circle cx="192" cy="96" r="4"/>
    <circle cx="192" cy="160" r="4"/>
    <circle cx="192" cy="224" r="4"/>
    <circle cx="192" cy="288" r="4"/>
    <circle cx="192" cy="352" r="4"/>
    <circle cx="192" cy="416" r="4"/>
    
    <circle cx="304" cy="128" r="4"/>
    <circle cx="304" cy="192" r="4"/>
    <circle cx="304" cy="256" r="4"/>
    <circle cx="304" cy="320" r="4"/>
    <circle cx="304" cy="384" r="4"/>
    
    <circle cx="416" cy="192" r="4"/>
    <circle cx="416" cy="256" r="4"/>
    <circle cx="416" cy="320" r="4"/>
  </g>
  
  <!-- Activation function indicators -->
  <g fill="#32CD32" filter="url(#mlGlow)">
    <rect x="72" y="120" width="16" height="16" rx="2"/>
    <rect x="72" y="184" width="16" height="16" rx="2"/>
    <rect x="72" y="248" width="16" height="16" rx="2"/>
    <rect x="72" y="312" width="16" height="16" rx="2"/>
    <rect x="72" y="376" width="16" height="16" rx="2"/>
    
    <rect x="184" y="88" width="16" height="16" rx="2"/>
    <rect x="184" y="152" width="16" height="16" rx="2"/>
    <rect x="184" y="216" width="16" height="16" rx="2"/>
    <rect x="184" y="280" width="16" height="16" rx="2"/>
    <rect x="184" y="344" width="16" height="16" rx="2"/>
    <rect x="184" y="408" width="16" height="16" rx="2"/>
    
    <rect x="296" y="120" width="16" height="16" rx="2"/>
    <rect x="296" y="184" width="16" height="16" rx="2"/>
    <rect x="296" y="248" width="16" height="16" rx="2"/>
    <rect x="296" y="312" width="16" height="16" rx="2"/>
    <rect x="296" y="376" width="16" height="16" rx="2"/>
    
    <rect x="408" y="184" width="16" height="16" rx="2"/>
    <rect x="408" y="248" width="16" height="16" rx="2"/>
    <rect x="408" y="312" width="16" height="16" rx="2"/>
  </g>
  
  <!-- Data flow arrows -->
  <g fill="#00FFCC" filter="url(#mlGlow)">
    <polygon points="136,128 144,124 144,132"/>
    <polygon points="248,160 256,156 256,164"/>
    <polygon points="360,256 368,252 368,260"/>
  </g>
</svg>