<svg xmlns="http://www.w3.org/2000/svg" width="512" height="512" viewBox="0 0 512 512">
  <defs>
    <linearGradient id="matrixGradient" x1="0%" y1="0%" x2="100%" y2="100%">
      <stop offset="0%" style="stop-color:#000000;stop-opacity:1" />
      <stop offset="100%" style="stop-color:#001a00;stop-opacity:1" />
    </linearGradient>
    <linearGradient id="matrixColumnGradient" x1="0%" y1="0%" x2="0%" y2="100%">
      <stop offset="0%" style="stop-color:#00FF00;stop-opacity:0" />
      <stop offset="50%" style="stop-color:#00FF00;stop-opacity:0.8" />
      <stop offset="100%" style="stop-color:#00FF00;stop-opacity:0" />
    </linearGradient>
    <filter id="matrixGlow">
      <feGaussianBlur stdDeviation="1.5" result="coloredBlur"/>
      <feMerge>
        <feMergeNode in="coloredBlur"/>
        <feMergeNode in="SourceGraphic"/>
      </feMerge>
    </filter>
  </defs>
  
  <!-- Background -->
  <rect width="512" height="512" fill="url(#matrixGradient)"/>
  
  <!-- Matrix rain columns -->
  <g fill="#00FF00" font-family="monospace" font-size="12" filter="url(#matrixGlow)">
    <!-- Column 1 -->
    <text x="10" y="20">0</text>
    <text x="10" y="35">1</text>
    <text x="10" y="50">0</text>
    <text x="10" y="65">1</text>
    <text x="10" y="80">0</text>
    <text x="10" y="95">1</text>
    <text x="10" y="110">0</text>
    <text x="10" y="125">1</text>
    <text x="10" y="140">0</text>
    <text x="10" y="155">1</text>
    <text x="10" y="170">0</text>
    <text x="10" y="185">1</text>
    <text x="10" y="200">0</text>
    <text x="10" y="215">1</text>
    <text x="10" y="230">0</text>
    <text x="10" y="245">1</text>
    <text x="10" y="260">0</text>
    <text x="10" y="275">1</text>
    <text x="10" y="290">0</text>
    <text x="10" y="305">1</text>
    <text x="10" y="320">0</text>
    <text x="10" y="335">1</text>
    <text x="10" y="350">0</text>
    <text x="10" y="365">1</text>
    <text x="10" y="380">0</text>
    <text x="10" y="395">1</text>
    <text x="10" y="410">0</text>
    <text x="10" y="425">1</text>
    <text x="10" y="440">0</text>
    <text x="10" y="455">1</text>
    <text x="10" y="470">0</text>
    <text x="10" y="485">1</text>
    <text x="10" y="500">0</text>
    
    <!-- Column 2 -->
    <text x="30" y="20">1</text>
    <text x="30" y="35">0</text>
    <text x="30" y="50">1</text>
    <text x="30" y="65">0</text>
    <text x="30" y="80">1</text>
    <text x="30" y="95">0</text>
    <text x="30" y="110">1</text>
    <text x="30" y="125">0</text>
    <text x="30" y="140">1</text>
    <text x="30" y="155">0</text>
    <text x="30" y="170">1</text>
    <text x="30" y="185">0</text>
    <text x="30" y="200">1</text>
    <text x="30" y="215">0</text>
    <text x="30" y="230">1</text>
    <text x="30" y="245">0</text>
    <text x="30" y="260">1</text>
    <text x="30" y="275">0</text>
    <text x="30" y="290">1</text>
    <text x="30" y="305">0</text>
    <text x="30" y="320">1</text>
    <text x="30" y="335">0</text>
    <text x="30" y="350">1</text>
    <text x="30" y="365">0</text>
    <text x="30" y="380">1</text>
    <text x="30" y="395">0</text>
    <text x="30" y="410">1</text>
    <text x="30" y="425">0</text>
    <text x="30" y="440">1</text>
    <text x="30" y="455">0</text>
    <text x="30" y="470">1</text>
    <text x="30" y="485">0</text>
    <text x="30" y="500">1</text>
    
    <!-- Column 3 -->
    <text x="50" y="20">0</text>
    <text x="50" y="35">1</text>
    <text x="50" y="50">0</text>
    <text x="50" y="65">1</text>
    <text x="50" y="80">0</text>
    <text x="50" y="95">1</text>
    <text x="50" y="110">0</text>
    <text x="50" y="125">1</text>
    <text x="50" y="140">0</text>
    <text x="50" y="155">1</text>
    <text x="50" y="170">0</text>
    <text x="50" y="185">1</text>
    <text x="50" y="200">0</text>
    <text x="50" y="215">1</text>
    <text x="50" y="230">0</text>
    <text x="50" y="245">1</text>
    <text x="50" y="260">0</text>
    <text x="50" y="275">1</text>
    <text x="50" y="290">0</text>
    <text x="50" y="305">1</text>
    <text x="50" y="320">0</text>
    <text x="50" y="335">1</text>
    <text x="50" y="350">0</text>
    <text x="50" y="365">1</text>
    <text x="50" y="380">0</text>
    <text x="50" y="395">1</text>
    <text x="50" y="410">0</text>
    <text x="50" y="425">1</text>
    <text x="50" y="440">0</text>
    <text x="50" y="455">1</text>
    <text x="50" y="470">0</text>
    <text x="50" y="485">1</text>
    <text x="50" y="500">0</text>
    
    <!-- Column 4 -->
    <text x="70" y="20">1</text>
    <text x="70" y="35">0</text>
    <text x="70" y="50">1</text>
    <text x="70" y="65">0</text>
    <text x="70" y="80">1</text>
    <text x="70" y="95">0</text>
    <text x="70" y="110">1</text>
    <text x="70" y="125">0</text>
    <text x="70" y="140">1</text>
    <text x="70" y="155">0</text>
    <text x="70" y="170">1</text>
    <text x="70" y="185">0</text>
    <text x="70" y="200">1</text>
    <text x="70" y="215">0</text>
    <text x="70" y="230">1</text>
    <text x="70" y="245">0</text>
    <text x="70" y="260">1</text>
    <text x="70" y="275">0</text>
    <text x="70" y="290">1</text>
    <text x="70" y="305">0</text>
    <text x="70" y="320">1</text>
    <text x="70" y="335">0</text>
    <text x="70" y="350">1</text>
    <text x="70" y="365">0</text>
    <text x="70" y="380">1</text>
    <text x="70" y="395">0</text>
    <text x="70" y="410">1</text>
    <text x="70" y="425">0</text>
    <text x="70" y="440">1</text>
    <text x="70" y="455">0</text>
    <text x="70" y="470">1</text>
    <text x="70" y="485">0</text>
    <text x="70" y="500">1</text>
    
    <!-- Column 5 -->
    <text x="90" y="20">0</text>
    <text x="90" y="35">1</text>
    <text x="90" y="50">0</text>
    <text x="90" y="65">1</text>
    <text x="90" y="80">0</text>
    <text x="90" y="95">1</text>
    <text x="90" y="110">0</text>
    <text x="90" y="125">1</text>
    <text x="90" y="140">0</text>
    <text x="90" y="155">1</text>
    <text x="90" y="170">0</text>
    <text x="90" y="185">1</text>
    <text x="90" y="200">0</text>
    <text x="90" y="215">1</text>
    <text x="90" y="230">0</text>
    <text x="90" y="245">1</text>
    <text x="90" y="260">0</text>
    <text x="90" y="275">1</text>
    <text x="90" y="290">0</text>
    <text x="90" y="305">1</text>
    <text x="90" y="320">0</text>
    <text x="90" y="335">1</text>
    <text x="90" y="350">0</text>
    <text x="90" y="365">1</text>
    <text x="90" y="380">0</text>
    <text x="90" y="395">1</text>
    <text x="90" y="410">0</text>
    <text x="90" y="425">1</text>
    <text x="90" y="440">0</text>
    <text x="90" y="455">1</text>
    <text x="90" y="470">0</text>
    <text x="90" y="485">1</text>
    <text x="90" y="500">0</text>
    
    <!-- Column 6 -->
    <text x="110" y="20">1</text>
    <text x="110" y="35">0</text>
    <text x="110" y="50">1</text>
    <text x="110" y="65">0</text>
    <text x="110" y="80">1</text>
    <text x="110" y="95">0</text>
    <text x="110" y="110">1</text>
    <text x="110" y="125">0</text>
    <text x="110" y="140">1</text>
    <text x="110" y="155">0</text>
    <text x="110" y="170">1</text>
    <text x="110" y="185">0</text>
    <text x="110" y="200">1</text>
    <text x="110" y="215">0</text>
    <text x="110" y="230">1</text>
    <text x="110" y="245">0</text>
    <text x="110" y="260">1</text>
    <text x="110" y="275">0</text>
    <text x="110" y="290">1</text>
    <text x="110" y="305">0</text>
    <text x="110" y="320">1</text>
    <text x="110" y="335">0</text>
    <text x="110" y="350">1</text>
    <text x="110" y="365">0</text>
    <text x="110" y="380">1</text>
    <text x="110" y="395">0</text>
    <text x="110" y="410">1</text>
    <text x="110" y="425">0</text>
    <text x="110" y="440">1</text>
    <text x="110" y="455">0</text>
    <text x="110" y="470">1</text>
    <text x="110" y="485">0</text>
    <text x="110" y="500">1</text>
    
    <!-- Column 7 -->
    <text x="130" y="20">0</text>
    <text x="130" y="35">1</text>
    <text x="130" y="50">0</text>
    <text x="130" y="65">1</text>
    <text x="130" y="80">0</text>
    <text x="130" y="95">1</text>
    <text x="130" y="110">0</text>
    <text x="130" y="125">1</text>
    <text x="130" y="140">0</text>
    <text x="130" y="155">1</text>
    <text x="130" y="170">0</text>
    <text x="130" y="185">1</text>
    <text x="130" y="200">0</text>
    <text x="130" y="215">1</text>
    <text x="130" y="230">0</text>
    <text x="130" y="245">1</text>
    <text x="130" y="260">0</text>
    <text x="130" y="275">1</text>
    <text x="130" y="290">0</text>
    <text x="130" y="305">1</text>
    <text x="130" y="320">0</text>
    <text x="130" y="335">1</text>
    <text x="130" y="350">0</text>
    <text x="130" y="365">1</text>
    <text x="130" y="380">0</text>
    <text x="130" y="395">1</text>
    <text x="130" y="410">0</text>
    <text x="130" y="425">1</text>
    <text x="130" y="440">0</text>
    <text x="130" y="455">1</text>
    <text x="130" y="470">0</text>
    <text x="130" y="485">1</text>
    <text x="130" y="500">0</text>
    
    <!-- Column 8 -->
    <text x="150" y="20">1</text>
    <text x="150" y="35">0</text>
    <text x="150" y="50">1</text>
    <text x="150" y="65">0</text>
    <text x="150" y="80">1</text>
    <text x="150" y="95">0</text>
    <text x="150" y="110">1</text>
    <text x="150" y="125">0</text>
    <text x="150" y="140">1</text>
    <text x="150" y="155">0</text>
    <text x="150" y="170">1</text>
    <text x="150" y="185">0</text>
    <text x="150" y="200">1</text>
    <text x="150" y="215">0</text>
    <text x="150" y="230">1</text>
    <text x="150" y="245">0</text>
    <text x="150" y="260">1</text>
    <text x="150" y="275">0</text>
    <text x="150" y="290">1</text>
    <text x="150" y="305">0</text>
    <text x="150" y="320">1</text>
    <text x="150" y="335">0</text>
    <text x="150" y="350">1</text>
    <text x="150" y="365">0</text>
    <text x="150" y="380">1</text>
    <text x="150" y="395">0</text>
    <text x="150" y="410">1</text>
    <text x="150" y="425">0</text>
    <text x="150" y="440">1</text>
    <text x="150" y="455">0</text>
    <text x="150" y="470">1</text>
    <text x="150" y="485">0</text>
    <text x="150" y="500">1</text>
    
    <!-- Column 9 -->
    <text x="170" y="20">0</text>
    <text x="170" y="35">1</text>
    <text x="170" y="50">0</text>
    <text x="170" y="65">1</text>
    <text x="170" y="80">0</text>
    <text x="170" y="95">1</text>
    <text x="170" y="110">0</text>
    <text x="170" y="125">1</text>
    <text x="170" y="140">0</text>
    <text x="170" y="155">1</text>
    <text x="170" y="170">0</text>
    <text x="170" y="185">1</text>
    <text x="170" y="200">0</text>
    <text x="170" y="215">1</text>
    <text x="170" y="230">0</text>
    <text x="170" y="245">1</text>
    <text x="170" y="260">0</text>
    <text x="170" y="275">1</text>
    <text x="170" y="290">0</text>
    <text x="170" y="305">1</text>
    <text x="170" y="320">0</text>
    <text x="170" y="335">1</text>
    <text x="170" y="350">0</text>
    <text x="170" y="365">1</text>
    <text x="170" y="380">0</text>
    <text x="170" y="395">1</text>
    <text x="170" y="410">0</text>
    <text x="170" y="425">1</text>
    <text x="170" y="440">0</text>
    <text x="170" y="455">1</text>
    <text x="170" y="470">0</text>
    <text x="170" y="485">1</text>
    <text x="170" y="500">0</text>
    
    <!-- Column 10 -->
    <text x="190" y="20">1</text>
    <text x="190" y="35">0</text>
    <text x="190" y="50">1</text>
    <text x="190" y="65">0</text>
    <text x="190" y="80">1</text>
    <text x="190" y="95">0</text>
    <text x="190" y="110">1</text>
    <text x="190" y="125">0</text>
    <text x="190" y="140">1</text>
    <text x="190" y="155">0</text>
    <text x="190" y="170">1</text>
    <text x="190" y="185">0</text>
    <text x="190" y="200">1</text>
    <text x="190" y="215">0</text>
    <text x="190" y="230">1</text>
    <text x="190" y="245">0</text>
    <text x="190" y="260">1</text>
    <text x="190" y="275">0</text>
    <text x="190" y="290">1</text>
    <text x="190" y="305">0</text>
    <text x="190" y="320">1</text>
    <text x="190" y="335">0</text>
    <text x="190" y="350">1</text>
    <text x="190" y="365">0</text>
    <text x="190" y="380">1</text>
    <text x="190" y="395">0</text>
    <text x="190" y="410">1</text>
    <text x="190" y="425">0</text>
    <text x="190" y="440">1</text>
    <text x="190" y="455">0</text>
    <text x="190" y="470">1</text>
    <text x="190" y="485">0</text>
    <text x="190" y="500">1</text>
    
    <!-- Column 11 -->
    <text x="210" y="20">0</text>
    <text x="210" y="35">1</text>
    <text x="210" y="50">0</text>
    <text x="210" y="65">1</text>
    <text x="210" y="80">0</text>
    <text x="210" y="95">1</text>
    <text x="210" y="110">0</text>
    <text x="210" y="125">1</text>
    <text x="210" y="140">0</text>
    <text x="210" y="155">1</text>
    <text x="210" y="170">0</text>
    <text x="210" y="185">1</text>
    <text x="210" y="200">0</text>
    <text x="210" y="215">1</text>
    <text x="210" y="230">0</text>
    <text x="210" y="245">1</text>
    <text x="210" y="260">0</text>
    <text x="210" y="275">1</text>
    <text x="210" y="290">0</text>
    <text x="210" y="305">1</text>
    <text x="210" y="320">0</text>
    <text x="210" y="335">1</text>
    <text x="210" y="350">0</text>
    <text x="210" y="365">1</text>
    <text x="210" y="380">0</text>
    <text x="210" y="395">1</text>
    <text x="210" y="410">0</text>
    <text x="210" y="425">1</text>
    <text x="210" y="440">0</text>
    <text x="210" y="455">1</text>
    <text x="210" y="470">0</text>
    <text x="210" y="485">1</text>
    <text x="210" y="500">0</text>
    
    <!-- Column 12 -->
    <text x="230" y="20">1</text>
    <text x="230" y="35">0</text>
    <text x="230" y="50">1</text>
    <text x="230" y="65">0</text>
    <text x="230" y="80">1</text>
    <text x="230" y="95">0</text>
    <text x="230" y="110">1</text>
    <text x="230" y="125">0</text>
    <text x="230" y="140">1</text>
    <text x="230" y="155">0</text>
    <text x="230" y="170">1</text>
    <text x="230" y="185">0</text>
    <text x="230" y="200">1</text>
    <text x="230" y="215">0</text>
    <text x="230" y="230">1</text>
    <text x="230" y="245">0</text>
    <text x="230" y="260">1</text>
    <text x="230" y="275">0</text>
    <text x="230" y="290">1</text>
    <text x="230" y="305">0</text>
    <text x="230" y="320">1</text>
    <text x="230" y="335">0</text>
    <text x="230" y="350">1</text>
    <text x="230" y="365">0</text>
    <text x="230" y="380">1</text>
    <text x="230" y="395">0</text>
    <text x="230" y="410">1</text>
    <text x="230" y="425">0</text>
    <text x="230" y="440">1</text>
    <text x="230" y="455">0</text>
    <text x="230" y="470">1</text>
    <text x="230" y="485">0</text>
    <text x="230" y="500">1</text>
    
    <!-- Column 13 -->
    <text x="250" y="20">0</text>
    <text x="250" y="35">1</text>
    <text x="250" y="50">0</text>
    <text x="250" y="65">1</text>
    <text x="250" y="80">0</text>
    <text x="250" y="95">1</text>
    <text x="250" y="110">0</text>
    <text x="250" y="125">1</text>
    <text x="250" y="140">0</text>
    <text x="250" y="155">1</text>
    <text x="250" y="170">0</text>
    <text x="250" y="185">1</text>
    <text x="250" y="200">0</text>
    <text x="250" y="215">1</text>
    <text x="250" y="230">0</text>
    <text x="250" y="245">1</text>
    <text x="250" y="260">0</text>
    <text x="250" y="275">1</text>
    <text x="250" y="290">0</text>
    <text x="250" y="305">1</text>
    <text x="250" y="320">0</text>
    <text x="250" y="335">1</text>
    <text x="250" y="350">0</text>
    <text x="250" y="365">1</text>
    <text x="250" y="380">0</text>
    <text x="250" y="395">1</text>
    <text x="250" y="410">0</text>
    <text x="250" y="425">1</text>
    <text x="250" y="440">0</text>
    <text x="250" y="455">1</text>
    <text x="250" y="470">0</text>
    <text x="250" y="485">1</text>
    <text x="250" y="500">0</text>
    
    <!-- Column 14 -->
    <text x="270" y="20">1</text>
    <text x="270" y="35">0</text>
    <text x="270" y="50">1</text>
    <text x="270" y="65">0</text>
    <text x="270" y="80">1</text>
    <text x="270" y="95">0</text>
    <text x="270" y="110">1</text>
    <text x="270" y="125">0</text>
    <text x="270" y="140">1</text>
    <text x="270" y="155">0</text>
    <text x="270" y="170">1</text>
    <text x="270" y="185">0</text>
    <text x="270" y="200">1</text>
    <text x="270" y="215">0</text>
    <text x="270" y="230">1</text>
    <text x="270" y="245">0</text>
    <text x="270" y="260">1</text>
    <text x="270" y="275">0</text>
    <text x="270" y="290">1</text>
    <text x="270" y="305">0</text>
    <text x="270" y="320">1</text>
    <text x="270" y="335">0</text>
    <text x="270" y="350">1</text>
    <text x="270" y="365">0</text>
    <text x="270" y="380">1</text>
    <text x="270" y="395">0</text>
    <text x="270" y="410">1</text>
    <text x="270" y="425">0</text>
    <text x="270" y="440">1</text>
    <text x="270" y="455">0</text>
    <text x="270" y="470">1</text>
    <text x="270" y="485">0</text>
    <text x="270" y="500">1</text>
    
    <!-- Column 15 -->
    <text x="290" y="20">0</text>
    <text x="290" y="35">1</text>
    <text x="290" y="50">0</text>
    <text x="290" y="65">1</text>
    <text x="290" y="80">0</text>
    <text x="290" y="95">1</text>
    <text x="290" y="110">0</text>
    <text x="290" y="125">1</text>
    <text x="290" y="140">0</text>
    <text x="290" y="155">1</text>
    <text x="290" y="170">0</text>
    <text x="290" y="185">1</text>
    <text x="290" y="200">0</text>
    <text x="290" y="215">1</text>
    <text x="290" y="230">0</text>
    <text x="290" y="245">1</text>
    <text x="290" y="260">0</text>
    <text x="290" y="275">1</text>
    <text x="290" y="290">0</text>
    <text x="290" y="305">1</text>
    <text x="290" y="320">0</text>
    <text x="290" y="335">1</text>
    <text x="290" y="350">0</text>
    <text x="290" y="365">1</text>
    <text x="290" y="380">0</text>
    <text x="290" y="395">1</text>
    <text x="290" y="410">0</text>
    <text x="290" y="425">1</text>
    <text x="290" y="440">0</text>
    <text x="290" y="455">1</text>
    <text x="290" y="470">0</text>
    <text x="290" y="485">1</text>
    <text x="290" y="500">0</text>
    
    <!-- Column 16 -->
    <text x="310" y="20">1</text>
    <text x="310" y="35">0</text>
    <text x="310" y="50">1</text>
    <text x="310" y="65">0</text>
    <text x="310" y="80">1</text>
    <text x="310" y="95">0</text>
    <text x="310" y="110">1</text>
    <text x="310" y="125">0</text>
    <text x="310" y="140">1</text>
    <text x="310" y="155">0</text>
    <text x="310" y="170">1</text>
    <text x="310" y="185">0</text>
    <text x="310" y="200">1</text>
    <text x="310" y="215">0</text>
    <text x="310" y="230">1</text>
    <text x="310" y="245">0</text>
    <text x="310" y="260">1</text>
    <text x="310" y="275">0</text>
    <text x="310" y="290">1</text>
    <text x="310" y="305">0</text>
    <text x="310" y="320">1</text>
    <text x="310" y="335">0</text>
    <text x="310" y="350">1</text>
    <text x="310" y="365">0</text>
    <text x="310" y="380">1</text>
    <text x="310" y="395">0</text>
    <text x="310" y="410">1</text>
    <text x="310" y="425">0</text>
    <text x="310" y="440">1</text>
    <text x="310" y="455">0</text>
    <text x="310" y="470">1</text>
    <text x="310" y="485">0</text>
    <text x="310" y="500">1</text>
    
    <!-- Column 17 -->
    <text x="330" y="20">0</text>
    <text x="330" y="35">1</text>
    <text x="330" y="50">0</text>
    <text x="330" y="65">1</text>
    <text x="330" y="80">0</text>
    <text x="330" y="95">1</text>
    <text x="330" y="110">0</text>
    <text x="330" y="125">1</text>
    <text x="330" y="140">0</text>
    <text x="330" y="155">1</text>
    <text x="330" y="170">0</text>
    <text x="330" y="185">1</text>
    <text x="330" y="200">0</text>
    <text x="330" y="215">1</text>
    <text x="330" y="230">0</text>
    <text x="330" y="245">1</text>
    <text x="330" y="260">0</text>
    <text x="330" y="275">1</text>
    <text x="330" y="290">0</text>
    <text x="330" y="305">1</text>
    <text x="330" y="320">0</text>
    <text x="330" y="335">1</text>
    <text x="330" y="350">0</text>
    <text x="330" y="365">1</text>
    <text x="330" y="380">0</text>
    <text x="330" y="395">1</text>
    <text x="330" y="410">0</text>
    <text x="330" y="425">1</text>
    <text x="330" y="440">0</text>
    <text x="330" y="455">1</text>
    <text x="330" y="470">0</text>
    <text x="330" y="485">1</text>
    <text x="330" y="500">0</text>
    
    <!-- Column 18 -->
    <text x="350" y="20">1</text>
    <text x="350" y="35">0</text>
    <text x="350" y="50">1</text>
    <text x="350" y="65">0</text>
    <text x="350" y="80">1</text>
    <text x="350" y="95">0</text>
    <text x="350" y="110">1</text>
    <text x="350" y="125">0</text>
    <text x="350" y="140">1</text>
    <text x="350" y="155">0</text>
    <text x="350" y="170">1</text>
    <text x="350" y="185">0</text>
    <text x="350" y="200">1</text>
    <text x="350" y="215">0</text>
    <text x="350" y="230">1</text>
    <text x="350" y="245">0</text>
    <text x="350" y="260">1</text>
    <text x="350" y="275">0</text>
    <text x="350" y="290">1</text>
    <text x="350" y="305">0</text>
    <text x="350" y="320">1</text>
    <text x="350" y="335">0</text>
    <text x="350" y="350">1</text>
    <text x="350" y="365">0</text>
    <text x="350" y="380">1</text>
    <text x="350" y="395">0</text>
    <text x="350" y="410">1</text>
    <text x="350" y="425">0</text>
    <text x="350" y="440">1</text>
    <text x="350" y="455">0</text>
    <text x="350" y="470">1</text>
    <text x="350" y="485">0</text>
    <text x="350" y="500">1</text>
    
    <!-- Column 19 -->
    <text x="370" y="20">0</text>
    <text x="370" y="35">1</text>
    <text x="370" y="50">0</text>
    <text x="370" y="65">1</text>
    <text x="370" y="80">0</text>
    <text x="370" y="95">1</text>
    <text x="370" y="110">0</text>
    <text x="370" y="125">1</text>
    <text x="370" y="140">0</text>
    <text x="370" y="155">1</text>
    <text x="370" y="170">0</text>
    <text x="370" y="185">1</text>
    <text x="370" y="200">0</text>
    <text x="370" y="215">1</text>
    <text x="370" y="230">0</text>
    <text x="370" y="245">1</text>
    <text x="370" y="260">0</text>
    <text x="370" y="275">1</text>
    <text x="370" y="290">0</text>
    <text x="370" y="305">1</text>
    <text x="370" y="320">0</text>
    <text x="370" y="335">1</text>
    <text x="370" y="350">0</text>
    <text x="370" y="365">1</text>
    <text x="370" y="380">0</text>
    <text x="370" y="395">1</text>
    <text x="370" y="410">0</text>
    <text x="370" y="425">1</text>
    <text x="370" y="440">0</text>
    <text x="370" y="455">1</text>
    <text x="370" y="470">0</text>
    <text x="370" y="485">1</text>
    <text x="370" y="500">0</text>
    
    <!-- Column 20 -->
    <text x="390" y="20">1</text>
    <text x="390" y="35">0</text>
    <text x="390" y="50">1</text>
    <text x="390" y="65">0</text>
    <text x="390" y="80">1</text>
    <text x="390" y="95">0</text>
    <text x="390" y="110">1</text>
    <text x="390" y="125">0</text>
    <text x="390" y="140">1</text>
    <text x="390" y="155">0</text>
    <text x="390" y="170">1</text>
    <text x="390" y="185">0</text>
    <text x="390" y="200">1</text>
    <text x="390" y="215">0</text>
    <text x="390" y="230">1</text>
    <text x="390" y="245">0</text>
    <text x="390" y="260">1</text>
    <text x="390" y="275">0</text>
    <text x="390" y="290">1</text>
    <text x="390" y="305">0</text>
    <text x="390" y="320">1</text>
    <text x="390" y="335">0</text>
    <text x="390" y="350">1</text>
    <text x="390" y="365">0</text>
    <text x="390" y="380">1</text>
    <text x="390" y="395">0</text>
    <text x="390" y="410">1</text>
    <text x="390" y="425">0</text>
    <text x="390" y="440">1</text>
    <text x="390" y="455">0</text>
    <text x="390" y="470">1</text>
    <text x="390" y="485">0</text>
    <text x="390" y="500">1</text>
    
    <!-- Column 21 -->
    <text x="410" y="20">0</text>
    <text x="410" y="35">1</text>
    <text x="410" y="50">0</text>
    <text x="410" y="65">1</text>
    <text x="410" y="80">0</text>
    <text x="410" y="95">1</text>
    <text x="410" y="110">0</text>
    <text x="410" y="125">1</text>
    <text x="410" y="140">0</text>
    <text x="410" y="155">1</text>
    <text x="410" y="170">0</text>
    <text x="410" y="185">1</text>
    <text x="410" y="200">0</text>
    <text x="410" y="215">1</text>
    <text x="410" y="230">0</text>
    <text x="410" y="245">1</text>
    <text x="410" y="260">0</text>
    <text x="410" y="275">1</text>
    <text x="410" y="290">0</text>
    <text x="410" y="305">1</text>
    <text x="410" y="320">0</text>
    <text x="410" y="335">1</text>
    <text x="410" y="350">0</text>
    <text x="410" y="365">1</text>
    <text x="410" y="380">0</text>
    <text x="410" y="395">1</text>
    <text x="410" y="410">0</text>
    <text x="410" y="425">1</text>
    <text x="410" y="440">0</text>
    <text x="410" y="455">1</text>
    <text x="410" y="470">0</text>
    <text x="410" y="485">1</text>
    <text x="410" y="500">0</text>
    
    <!-- Column 22 -->
    <text x="430" y="20">1</text>
    <text x="430" y="35">0</text>
    <text x="430" y="50">1</text>
    <text x="430" y="65">0</text>
    <text x="430" y="80">1</text>
    <text x="430" y="95">0</text>
    <text x="430" y="110">1</text>
    <text x="430" y="125">0</text>
    <text x="430" y="140">1</text>
    <text x="430" y="155">0</text>
    <text x="430" y="170">1</text>
    <text x="430" y="185">0</text>
    <text x="430" y="200">1</text>
    <text x="430" y="215">0</text>
    <text x="430" y="230">1</text>
    <text x="430" y="245">0</text>
    <text x="430" y="260">1</text>
    <text x="430" y="275">0</text>
    <text x="430" y="290">1</text>
    <text x="430" y="305">0</text>
    <text x="430" y="320">1</text>
    <text x="430" y="335">0</text>
    <text x="430" y="350">1</text>
    <text x="430" y="365">0</text>
    <text x="430" y="380">1</text>
    <text x="430" y="395">0</text>
    <text x="430" y="410">1</text>
    <text x="430" y="425">0</text>
    <text x="430" y="440">1</text>
    <text x="430" y="455">0</text>
    <text x="430" y="470">1</text>
    <text x="430" y="485">0</text>
    <text x="430" y="500">1</text>
    
    <!-- Column 23 -->
    <text x="450" y="20">0</text>
    <text x="450" y="35">1</text>
    <text x="450" y="50">0</text>
    <text x="450" y="65">1</text>
    <text x="450" y="80">0</text>
    <text x="450" y="95">1</text>
    <text x="450" y="110">0</text>
    <text x="450" y="125">1</text>
    <text x="450" y="140">0</text>
    <text x="450" y="155">1</text>
    <text x="450" y="170">0</text>
    <text x="450" y="185">1</text>
    <text x="450" y="200">0</text>
    <text x="450" y="215">1</text>
    <text x="450" y="230">0</text>
    <text x="450" y="245">1</text>
    <text x="450" y="260">0</text>
    <text x="450" y="275">1</text>
    <text x="450" y="290">0</text>
    <text x="450" y="305">1</text>
    <text x="450" y="320">0</text>
    <text x="450" y="335">1</text>
    <text x="450" y="350">0</text>
    <text x="450" y="365">1</text>
    <text x="450" y="380">0</text>
    <text x="450" y="395">1</text>
    <text x="450" y="410">0</text>
    <text x="450" y="425">1</text>
    <text x="450" y="440">0</text>
    <text x="450" y="455">1</text>
    <text x="450" y="470">0</text>
    <text x="450" y="485">1</text>
    <text x="450" y="500">0</text>
    
    <!-- Column 24 -->
    <text x="470" y="20">1</text>
    <text x="470" y="35">0</text>
    <text x="470" y="50">1</text>
    <text x="470" y="65">0</text>
    <text x="470" y="80">1</text>
    <text x="470" y="95">0</text>
    <text x="470" y="110">1</text>
    <text x="470" y="125">0</text>
    <text x="470" y="140">1</text>
    <text x="470" y="155">0</text>
    <text x="470" y="170">1</text>
    <text x="470" y="185">0</text>
    <text x="470" y="200">1</text>
    <text x="470" y="215">0</text>
    <text x="470" y="230">1</text>
    <text x="470" y="245">0</text>
    <text x="470" y="260">1</text>
    <text x="470" y="275">0</text>
    <text x="470" y="290">1</text>
    <text x="470" y="305">0</text>
    <text x="470" y="320">1</text>
    <text x="470" y="335">0</text>
    <text x="470" y="350">1</text>
    <text x="470" y="365">0</text>
    <text x="470" y="380">1</text>
    <text x="470" y="395">0</text>
    <text x="470" y="410">1</text>
    <text x="470" y="425">0</text>
    <text x="470" y="440">1</text>
    <text x="470" y="455">0</text>
    <text x="470" y="470">1</text>
    <text x="470" y="485">0</text>
    <text x="470" y="500">1</text>
    
    <!-- Column 25 -->
    <text x="490" y="20">0</text>
    <text x="490" y="35">1</text>
    <text x="490" y="50">0</text>
    <text x="490" y="65">1</text>
    <text x="490" y="80">0</text>
    <text x="490" y="95">1</text>
    <text x="490" y="110">0</text>
    <text x="490" y="125">1</text>
    <text x="490" y="140">0</text>
    <text x="490" y="155">1</text>
    <text x="490" y="170">0</text>
    <text x="490" y="185">1</text>
    <text x="490" y="200">0</text>
    <text x="490" y="215">1</text>
    <text x="490" y="230">0</text>
    <text x="490" y="245">1</text>
    <text x="490" y="260">0</text>
    <text x="490" y="275">1</text>
    <text x="490" y="290">0</text>
    <text x="490" y="305">1</text>
    <text x="490" y="320">0</text>
    <text x="490" y="335">1</text>
    <text x="490" y="350">0</text>
    <text x="490" y="365">1</text>
    <text x="490" y="380">0</text>
    <text x="490" y="395">1</text>
    <text x="490" y="410">0</text>
    <text x="490" y="425">1</text>
    <text x="490" y="440">0</text>
    <text x="490" y="455">1</text>
    <text x="490" y="470">0</text>
    <text x="490" y="485">1</text>
    <text x="490" y="500">0</text>
  </g>
  
  <!-- Highlighted characters -->
  <g fill="#00FF00" font-family="monospace" font-size="14" filter="url(#matrixGlow)">
    <text x="10" y="20">0</text>
    <text x="30" y="35">0</text>
    <text x="50" y="50">0</text>
    <text x="70" y="65">0</text>
    <text x="90" y="80">0</text>
    <text x="110" y="95">0</text>
    <text x="130" y="110">0</text>
    <text x="150" y="125">0</text>
    <text x="170" y="140">0</text>
    <text x="190" y="155">0</text>
    <text x="210" y="170">0</text>
    <text x="230" y="185">0</text>
    <text x="250" y="200">0</text>
    <text x="270" y="215">0</text>
    <text x="290" y="230">0</text>
    <text x="310" y="245">0</text>
    <text x="330" y="260">0</text>
    <text x="350" y="275">0</text>
    <text x="370" y="290">0</text>
    <text x="390" y="305">0</text>
    <text x="410" y="320">0</text>
    <text x="430" y="335">0</text>
    <text x="450" y="350">0</text>
    <text x="470" y="365">0</text>
    <text x="490" y="380">0</text>
  </g>
</svg>